<svg width="1440" height="457" viewBox="0 0 1440 457" fill="none" xmlns="http://www.w3.org/2000/svg">
<g clip-path="url(#clip0_1256_14769)">
<path d="M1440 226.024V457H0V195.834L33.5064 192.804L76.08 189.581L104.254 178.697L143.82 168.979C143.82 168.979 169.678 167.592 170.75 167.791C171.823 167.989 199.79 169.819 199.79 169.819L224.693 158.792L262.404 151.329L295.838 143.236L324.761 151.951L352.56 166.879L387.768 191.447L414.168 203.578L449.854 213.218L491.551 210.419L529.795 207.393L573.067 208.241C573.067 208.241 582.554 202.246 602.369 200.057C622.183 197.867 640.752 190.162 646.697 190.515C652.639 190.867 703.044 188.026 703.044 188.026L722.796 197.949L744.461 207.148L746.282 207.764L762.396 213.218L809.527 220.296H809.53L818.016 221.569C818.016 221.569 864.199 223.481 865.325 223.481C866.45 223.481 916.428 210.804 918.521 210.242C920.616 209.682 975.391 189.581 975.391 189.581L1020.09 171.544L1067.9 168.683L1107.62 152.26L1136.36 159.88C1139.48 161.967 1157.77 172.251 1171.89 180.141C1181.29 185.397 1188.85 189.591 1188.85 189.591L1245.34 192.319L1276.29 186.472C1276.29 186.472 1303.34 183.984 1307.47 186.782C1307.47 186.784 1307.47 186.788 1307.48 186.79C1311.64 189.611 1334.31 205.298 1334.31 205.298L1383.03 214.593L1408.2 215.7L1408.92 215.732L1440 226.024Z" fill="#B0001A"/>
<path d="M1440 254.563V457H0V240.09L29.3016 241.86C29.3016 241.86 60.8664 240.742 105.943 237.475C122.194 236.299 136.31 234.213 147.893 231.981H147.905C168.449 228.023 180.979 223.612 183.142 223.014C186.521 222.082 227.568 219.644 227.568 219.644C227.568 219.644 231.936 219.916 238.09 220.34H238.092C249.398 221.118 266.736 222.414 274.106 223.495C285.49 225.166 320.198 221.148 331.685 222.315C339.026 223.06 357.797 220.173 371.729 217.606H371.738C379.598 216.155 385.913 214.806 387.768 214.267C392.916 212.777 432.624 201.738 432.624 201.738L473.899 200.206L506.496 209.236L536.29 224.776L555.782 234.944C555.782 234.944 607.44 244.94 609.13 245.407C610.822 245.872 694.807 246.955 694.807 246.955C694.807 246.955 695.258 246.893 696.091 246.782C706.409 245.387 775.483 236.041 777.048 235.609C778.738 235.142 848.954 216.525 848.954 216.525L874.992 208.162C874.992 208.162 910.759 213.642 913.409 212.284C916.058 210.929 994.15 232.788 994.15 232.788C994.15 232.788 1027.42 232.824 1055.4 232.83C1075.14 232.836 1092.24 232.828 1093.18 232.784C1095.46 232.677 1142.01 223.721 1142.73 223.582H1142.74L1183.88 231.878L1241.63 238.856L1294.88 228.5L1330.95 231.878L1378.99 241.634L1440 254.563Z" fill="#C70117"/>
<path d="M1440 300.921V457H0V253.466L28.9176 264.38L44.1504 270.131C44.1504 270.131 51.2424 274.536 88.5144 277.067C89.6016 277.141 90.7176 277.212 91.8576 277.284C132.053 279.771 135.014 279.911 154.512 279.376C155.316 279.354 156.034 279.332 156.677 279.312L160.853 280.109L166.13 279.994H166.133C169.567 280.383 175.526 280.918 185.77 281.637C227.94 284.6 272.546 283.193 272.546 283.193C272.546 283.193 308.94 278.816 315.535 279.45C322.133 280.083 345.799 277.596 349.555 277.596C353.311 277.596 403.668 263.377 403.668 263.377C403.668 263.377 410.906 261.181 418.308 260.061C423.588 259.26 428.95 259.008 431.822 260.49C438.725 264.049 475.586 275.73 475.586 275.73C475.586 275.73 493.423 287.791 505.073 289.69C516.72 291.59 527.99 298.121 540.01 302.474C550.505 306.277 562.541 307.569 568.932 312.538C569.863 313.264 570.672 314.064 571.342 314.962C576.605 322.034 588.358 328.529 588.358 328.529L644.628 335.132L708.66 341.053L759.768 349.436C759.768 349.436 805.222 351.614 806.347 351.614C807.473 351.614 838.21 350.924 838.21 350.924L855.341 342.033L865.702 341.973L870.583 340.107L888.588 336.833C888.588 336.833 898.946 331.554 899.698 331.554C900.449 331.554 908.15 333.886 908.15 333.886L919.044 340.572C919.044 340.572 919.69 340.916 920.7 341.453H920.702C924.077 343.245 931.522 347.183 932.609 347.64C934.022 348.232 945.602 354.298 947.695 354.743C949.786 355.19 962.203 357.02 962.203 357.02C962.203 357.02 976.462 358.65 976.987 358.443C977.513 358.234 987.461 352.411 987.461 352.411L999.91 347.739L1019.53 345.705L1031.79 341.329L1031.8 341.325L1031.96 341.268L1032.37 341.073L1032.44 341.043H1032.44L1043.57 335.752L1058.6 332.797L1091.09 338.862L1100 342.712L1123.77 346.638C1123.77 346.638 1137.67 350.215 1138.99 350.525C1140.3 350.837 1188.57 353.525 1188.57 353.525L1248.72 349.647L1267.68 339.64H1267.68L1282.3 339.328L1305.21 337.618L1305.77 337.455L1342.23 326.753L1355.43 321.907L1372.62 314.853L1385.79 313.671L1389.52 308.105L1422.13 300.468L1440 300.921Z" fill="#B0001A"/>
<path d="M1440 367.251V457H0V382.632L44.4648 383.791L77.988 379.457C77.988 379.457 108.775 376.212 139.142 372.854C169.272 369.522 201.787 365.364 202.294 365.3H202.298L240.053 348.504C240.053 348.504 297.838 350.141 300.907 352.236C303.862 354.249 355.752 356.776 364.783 357.936C365.141 357.982 365.429 358.026 365.647 358.067C371.364 359.158 434.282 374.398 434.282 374.398C434.282 374.398 494.182 376.959 498.125 377.893C502.07 378.827 559.663 379.781 559.663 379.781L601.037 369.224L636.559 357.833L701.83 343.229L714.502 334.041L757.325 328.603L801.276 324.712L838.466 344.771L892.56 363.432C892.56 363.432 969.192 369.963 986.662 370.428C1004.13 370.895 1037.37 371.362 1055.4 371.362C1073.44 371.362 1099.41 373.228 1099.41 373.228L1187.82 361.566L1222.54 344.687L1266.29 352.272L1304.46 354.251C1304.46 354.251 1333.26 359.707 1342.71 361.1C1352.17 362.492 1385.63 365.697 1385.63 365.697L1387.61 365.753H1387.61L1440 367.251Z" fill="#860014"/>
<path opacity="0.27" d="M246.25 10.0093L243.996 18.6386L229.063 23.7709L215.258 25.6367C215.258 25.6367 210.47 32.4003 209.062 33.5666C207.653 34.733 196.102 38.6989 193.565 39.3984C191.03 40.0978 176.942 41.2641 176.942 41.2641L145.2 48.8841L173.534 37.4869L194.786 28.6688L215.333 21.1084L230.098 14.6746C230.098 14.6746 245.124 10.3192 246.25 10.0093Z" fill="white"/>
<path opacity="0.27" d="M109.677 75.4355L90.1679 100.511L75.2351 109.84L70.4447 117.305L59.7383 122.669L55.7951 127.567L36.1919 131.764L51.6623 124.458L61.4303 116.683L70.1015 105.115C70.1015 105.115 87.1343 93.7613 89.3663 92.1916L89.3783 92.1816C89.6399 91.9968 90.1535 91.5955 90.8591 91.0332C94.6967 87.9613 104.191 80.0393 109.677 75.4355Z" fill="white"/>
<path opacity="0.27" d="M300.72 79.3619L269.729 70.6531C269.729 70.6531 256.392 66.7646 255.641 66.2997C254.89 65.8327 239.112 65.6777 239.112 65.6777L223.711 73.7646C223.711 73.7646 210.564 78.43 208.685 79.3619C206.806 80.2958 198.917 80.9177 198.917 80.9177L186.521 89.3146L148.579 102.178L171.869 98.0214L193.656 89.9345C193.656 89.9345 207.18 87.7568 208.306 87.4468C209.434 87.1349 225.209 85.891 226.337 85.5811C227.465 85.2691 250.754 73.4527 250.754 73.4527L256.39 71.432L263.527 73.2977L287.568 79.0519L311.609 84.8062L300.715 79.3639L300.72 79.3619Z" fill="white"/>
<path opacity="0.27" d="M581.87 91.2222L573.067 107.352L538.507 113.883L518.04 126.324H497.186L472.205 120.103C472.205 120.103 510.706 120.017 513 119.594C515.282 119.173 581.354 91.4387 581.87 91.2222Z" fill="white"/>
<path opacity="0.27" d="M951.374 99.7778L941.863 105.641L919.044 110.539L892.56 114.505L879.319 121.736L849.677 125.551L890.87 108.441L951.374 99.7778Z" fill="white"/>
<path opacity="0.27" d="M1100.18 69.105L1087.9 76.2521L1072.12 77.1839L1051.08 80.1385L1033.29 78.235C1049.03 75.9043 1074.25 70.6548 1074.25 70.6548L1100.18 69.105Z" fill="white"/>
<path opacity="0.27" d="M1302.21 70.188L1299.2 79.0518L1289.25 87.1367L1275.16 89.3542L1269.34 95.0667L1254.5 99.5771L1240.79 103.303L1206.92 103.468L1267.27 86.8884L1302.21 70.188Z" fill="white"/>
<path opacity="0.27" d="M635.05 122.902L662.472 115.127L670.361 108.773L684.072 104.865L698.537 102.178L742.111 119.016L719.009 114.66L709.43 111.084L693.276 114.505L677.311 114.038L662.472 119.326L635.05 122.902Z" fill="white"/>
<path opacity="0.27" d="M999.622 118.859C999.622 118.859 1017.84 107.817 1018.59 107.507C1019.34 107.195 1030.8 103.468 1030.8 103.468L1040.38 99.1104L1047.7 102.22L1069.12 108.284L1043.95 105.175C1043.95 105.175 1034.74 105.486 1034.37 105.796C1033.99 106.108 1020.84 112.532 1020.09 112.663C1019.34 112.795 999.622 118.859 999.622 118.859Z" fill="white"/>
<path opacity="0.27" d="M148.582 173.332L146.796 178.23L116.933 183.128L95.5201 184.529L76.0801 189.581L104.254 178.697L143.82 168.979L148.582 173.332Z" fill="white"/>
<path opacity="0.27" d="M295.838 143.236L260.525 156.149L246.626 160.969L219.578 164.001L213.943 169.819H199.79L224.693 158.792L262.404 151.329L295.838 143.236Z" fill="white"/>
<path opacity="0.15" d="M414.168 203.578L394.258 209.642L372.281 213.528L389.604 204.821L391.44 198.29L387.768 191.447L414.168 203.578Z" fill="#E9E9E9"/>
<path opacity="0.27" d="M703.044 188.026L646.884 194.402L628.289 200.206L612.324 204.043L598.98 208.241H573.067C573.067 208.241 582.554 202.246 602.369 200.057C622.183 197.867 640.752 190.162 646.697 190.515C652.639 190.867 703.044 188.026 703.044 188.026Z" fill="white"/>
<path opacity="0.06" d="M809.527 220.296L798.084 222.859L776.484 220.059L758.64 221.615L749.249 212.439L746.282 207.764L762.396 213.218L809.527 220.296Z" fill="#302A40"/>
<path opacity="0.27" d="M1067.9 168.683L1057.28 197.201L1053.9 179.007L1020.09 171.544L1067.9 168.683Z" fill="white"/>
<path opacity="0.06" d="M1188.85 189.591L1155.7 196.113L1124.9 190.515H1153.26L1171.89 180.141C1181.29 185.397 1188.85 189.591 1188.85 189.591Z" fill="#302A40"/>
<path opacity="0.27" d="M1307.48 186.79L1306.53 188.805H1290.56L1262.2 193.47L1245.34 192.32L1276.29 186.472C1276.29 186.472 1303.34 183.984 1307.47 186.782C1307.47 186.784 1307.47 186.788 1307.48 186.79Z" fill="white"/>
<path opacity="0.27" d="M1408.2 215.7L1403.07 220.526L1382.41 218.816L1361.75 217.727L1334.31 205.298L1383.03 214.593L1408.2 215.7Z" fill="white"/>
<path opacity="0.27" d="M238.09 220.34L223.43 224.18L189.338 227.447L166.8 232.812L147.905 231.981C168.449 228.023 180.979 223.612 183.142 223.014C186.521 222.082 227.568 219.644 227.568 219.644C227.568 219.644 231.936 219.916 238.09 220.34Z" fill="white"/>
<path opacity="0.27" d="M432.624 201.738L416.421 213.528L393.223 219.165L371.738 217.606C379.598 216.155 385.913 214.806 387.768 214.267C392.916 212.777 432.624 201.738 432.624 201.738Z" fill="white"/>
<path opacity="0.06" d="M555.783 234.944L528.271 245.872H499.534L529.399 238.876L537.288 228.5L536.29 224.776L555.783 234.944Z" fill="#302A40"/>
<path opacity="0.27" d="M874.992 208.162L804.377 240.742L775.92 244.229L746.283 246.782H696.091C706.409 245.387 775.483 236.041 777.048 235.609C778.738 235.142 848.955 216.525 848.955 216.525L874.992 208.162Z" fill="white"/>
<path opacity="0.27" d="M1142.73 223.582L1088.09 241.209L1055.4 232.83C1075.14 232.836 1092.24 232.828 1093.18 232.784C1095.46 232.677 1142.01 223.721 1142.73 223.582Z" fill="white"/>
<path opacity="0.27" d="M1330.95 231.878L1310.38 233.511L1279.39 241.209L1241.63 238.856L1294.88 228.5L1330.95 231.878Z" fill="white"/>
<path opacity="0.1" d="M88.5145 277.067L53.9161 279.771L25.9297 287.546L32.1289 273.085L28.9177 264.38L44.1505 270.131C44.1505 270.131 51.2425 274.536 88.5145 277.067Z" fill="#302A40"/>
<path opacity="0.16" d="M418.308 260.061L360.262 288.013C360.262 288.013 338.098 284.592 337.534 284.437C336.97 284.282 312.178 285.214 312.178 285.214L291.329 287.236L272.546 283.193C272.546 283.193 308.94 278.816 315.535 279.45C322.133 280.083 345.799 277.596 349.555 277.596C353.311 277.596 403.668 263.377 403.668 263.377C403.668 263.377 410.906 261.181 418.308 260.061Z" fill="white"/>
<path opacity="0.1" d="M588.358 328.529L544.33 341.973L568.932 312.538C569.863 313.264 570.672 314.064 571.342 314.962C576.605 322.034 588.358 328.529 588.358 328.529Z" fill="#302A40"/>
<path opacity="0.16" d="M888.588 336.833L872.275 341.429L865.795 345.083L855.341 342.033L865.702 341.973L870.583 340.107L888.588 336.833Z" fill="white"/>
<path opacity="0.1" d="M920.7 341.453L911.155 340.262L907.961 335.909L899.698 331.554C900.449 331.554 908.151 333.886 908.151 333.886L919.044 340.572C919.044 340.572 919.69 340.916 920.7 341.453Z" fill="#302A40"/>
<path opacity="0.16" d="M1031.79 341.329L1012.02 350.058L997.462 351.614L976.987 358.443C977.513 358.234 987.461 352.411 987.461 352.411L999.91 347.739L1019.53 345.705L1031.79 341.329Z" fill="white"/>
<path opacity="0.1" d="M1100 342.712C1100 342.712 1080.2 349.591 1079.92 349.514C1079.64 349.436 1091.09 338.862 1091.09 338.862L1100 342.712Z" fill="#302A40"/>
<path opacity="0.16" d="M1305.77 337.455L1299.39 341.117L1283.8 341.584C1283.8 341.584 1268.3 339.64 1267.68 339.64L1282.3 339.328L1305.21 337.618L1305.77 337.455Z" fill="white"/>
<path opacity="0.1" d="M1388.7 317.482L1385.88 332.02L1384.01 320.591L1372.62 314.853L1385.79 313.671L1388.7 317.482Z" fill="#302A40"/>
<path opacity="0.16" d="M1422.13 300.468L1417.72 305.663L1410.02 308.461L1389.52 308.105L1422.13 300.468Z" fill="white"/>
<path opacity="0.1" d="M202.294 365.3L182.297 377.893L140.316 390.856L44.4648 383.791L77.988 379.457C77.988 379.457 108.775 376.212 139.142 372.854C169.272 369.522 201.787 365.364 202.294 365.3Z" fill="white"/>
<path opacity="0.15" d="M434.282 374.398L387.12 376.028L372.187 386.29L364.783 357.936C365.141 357.982 365.429 358.026 365.647 358.067C371.364 359.158 434.282 374.398 434.282 374.398Z" fill="#302A40"/>
<path opacity="0.1" d="M701.83 343.229L681.538 370.428L625.471 373.462L581.801 381.859L559.663 379.781L601.037 369.224L636.559 357.833L701.83 343.229Z" fill="white"/>
<path opacity="0.15" d="M892.56 363.432C892.56 363.432 831.048 378.126 831.893 377.426C832.74 376.727 854.431 359.232 854.431 359.232L838.467 344.769L892.56 363.43V363.432Z" fill="#302A40"/>
<path opacity="0.1" d="M1222.54 344.687L1190.08 373.228L1152.89 384.424L1099.41 373.228L1187.82 361.566L1222.54 344.687Z" fill="white"/>
<path opacity="0.26" d="M1440 21.0439V59.0543C1403.94 60.1412 1367.93 62.2931 1332.05 65.508C1314.96 67.0399 1297.47 68.7964 1280.73 65.5576C1269.67 63.4197 1259.38 59.1775 1248.57 56.3044C1229.48 51.2337 1209.17 50.5144 1189.14 49.8368C1156.74 48.74 1124.33 47.6413 1091.93 46.5445C1077.68 46.0616 1061.21 44.5972 1053.38 34.7221C1071.8 29.9097 1091.48 29.9295 1110.8 29.9057C1220.61 29.7706 1330.41 26.814 1440 21.0439Z" fill="white"/>
</g>
<defs>
<clipPath id="clip0_1256_14769">
<rect width="1440" height="457" fill="white"/>
</clipPath>
</defs>
</svg>
