<svg width="48" height="48" viewBox="0 0 48 48" fill="none" xmlns="http://www.w3.org/2000/svg">
<mask id="mask0_723_9067" style="mask-type:alpha" maskUnits="userSpaceOnUse" x="0" y="0" width="48" height="48">
<rect width="48" height="48" fill="#D9D9D9"/>
</mask>
<g mask="url(#mask0_723_9067)">
<path d="M11.1 35.25C13.2 33.9167 15.275 32.9083 17.325 32.225C19.375 31.5417 21.6 31.2 24 31.2C26.4 31.2 28.6333 31.5417 30.7 32.225C32.7667 32.9083 34.85 33.9167 36.95 35.25C38.4167 33.45 39.4583 31.6333 40.075 29.8C40.6917 27.9667 41 26.0333 41 24C41 19.1667 39.375 15.125 36.125 11.875C32.875 8.625 28.8333 7 24 7C19.1667 7 15.125 8.625 11.875 11.875C8.625 15.125 7 19.1667 7 24C7 26.0333 7.31667 27.9667 7.95 29.8C8.58333 31.6333 9.63333 33.45 11.1 35.25ZM24 25.5C22.0667 25.5 20.4417 24.8417 19.125 23.525C17.8083 22.2083 17.15 20.5833 17.15 18.65C17.15 16.7167 17.8083 15.0917 19.125 13.775C20.4417 12.4583 22.0667 11.8 24 11.8C25.9333 11.8 27.5583 12.4583 28.875 13.775C30.1917 15.0917 30.85 16.7167 30.85 18.65C30.85 20.5833 30.1917 22.2083 28.875 23.525C27.5583 24.8417 25.9333 25.5 24 25.5ZM24 44C21.2 44 18.5833 43.475 16.15 42.425C13.7167 41.375 11.6 39.9417 9.8 38.125C8 36.3083 6.58333 34.1833 5.55 31.75C4.51667 29.3167 4 26.7167 4 23.95C4 21.2167 4.525 18.6333 5.575 16.2C6.625 13.7667 8.05833 11.65 9.875 9.85C11.6917 8.05 13.8167 6.625 16.25 5.575C18.6833 4.525 21.2833 4 24.05 4C26.7833 4 29.3667 4.525 31.8 5.575C34.2333 6.625 36.35 8.05 38.15 9.85C39.95 11.65 41.375 13.7667 42.425 16.2C43.475 18.6333 44 21.2333 44 24C44 26.7333 43.475 29.3167 42.425 31.75C41.375 34.1833 39.95 36.3083 38.15 38.125C36.35 39.9417 34.2333 41.375 31.8 42.425C29.3667 43.475 26.7667 44 24 44Z" fill="#1C1B1F"/>
</g>
</svg>
