<svg width="48" height="48" viewBox="0 0 48 48" fill="none" xmlns="http://www.w3.org/2000/svg">
<mask id="mask0_658_8430" style="mask-type:alpha" maskUnits="userSpaceOnUse" x="0" y="0" width="48" height="48">
<rect width="48" height="48" fill="#D9D9D9"/>
</mask>
<g mask="url(#mask0_658_8430)">
<path d="M11.1 35.25C13.2 33.7833 15.2833 32.6583 17.35 31.875C19.4167 31.0917 21.6333 30.7 24 30.7C26.3667 30.7 28.5917 31.0917 30.675 31.875C32.7583 32.6583 34.85 33.7833 36.95 35.25C38.4167 33.45 39.4583 31.6333 40.075 29.8C40.6917 27.9667 41 26.0333 41 24C41 19.1667 39.375 15.125 36.125 11.875C32.875 8.625 28.8333 7 24 7C19.1667 7 15.125 8.625 11.875 11.875C8.625 15.125 7 19.1667 7 24C7 26.0333 7.31667 27.9667 7.95 29.8C8.58333 31.6333 9.63333 33.45 11.1 35.25ZM24 25.5C22.0667 25.5 20.4417 24.8417 19.125 23.525C17.8083 22.2083 17.15 20.5833 17.15 18.65C17.15 16.7167 17.8083 15.0917 19.125 13.775C20.4417 12.4583 22.0667 11.8 24 11.8C25.9333 11.8 27.5583 12.4583 28.875 13.775C30.1917 15.0917 30.85 16.7167 30.85 18.65C30.85 20.5833 30.1917 22.2083 28.875 23.525C27.5583 24.8417 25.9333 25.5 24 25.5ZM24 44C21.2667 44 18.6833 43.475 16.25 42.425C13.8167 41.375 11.6917 39.9417 9.875 38.125C8.05833 36.3083 6.625 34.1833 5.575 31.75C4.525 29.3167 4 26.7333 4 24C4 21.2333 4.525 18.6417 5.575 16.225C6.625 13.8083 8.05833 11.6917 9.875 9.875C11.6917 8.05833 13.8167 6.625 16.25 5.575C18.6833 4.525 21.2667 4 24 4C26.7667 4 29.3583 4.525 31.775 5.575C34.1917 6.625 36.3083 8.05833 38.125 9.875C39.9417 11.6917 41.375 13.8083 42.425 16.225C43.475 18.6417 44 21.2333 44 24C44 26.7333 43.475 29.3167 42.425 31.75C41.375 34.1833 39.9417 36.3083 38.125 38.125C36.3083 39.9417 34.1917 41.375 31.775 42.425C29.3583 43.475 26.7667 44 24 44ZM24 41C25.8333 41 27.625 40.7333 29.375 40.2C31.125 39.6667 32.85 38.7333 34.55 37.4C32.85 36.2 31.1167 35.2833 29.35 34.65C27.5833 34.0167 25.8 33.7 24 33.7C22.2 33.7 20.4167 34.0167 18.65 34.65C16.8833 35.2833 15.15 36.2 13.45 37.4C15.15 38.7333 16.875 39.6667 18.625 40.2C20.375 40.7333 22.1667 41 24 41ZM24 22.5C25.1333 22.5 26.0583 22.1417 26.775 21.425C27.4917 20.7083 27.85 19.7833 27.85 18.65C27.85 17.5167 27.4917 16.5917 26.775 15.875C26.0583 15.1583 25.1333 14.8 24 14.8C22.8667 14.8 21.9417 15.1583 21.225 15.875C20.5083 16.5917 20.15 17.5167 20.15 18.65C20.15 19.7833 20.5083 20.7083 21.225 21.425C21.9417 22.1417 22.8667 22.5 24 22.5Z" fill="#1C1B1F"/>
</g>
</svg>
