<svg width="48" height="48" viewBox="0 0 48 48" fill="none" xmlns="http://www.w3.org/2000/svg">
<mask id="mask0_658_8419" style="mask-type:alpha" maskUnits="userSpaceOnUse" x="0" y="0" width="48" height="48">
<rect width="48" height="48" fill="#D9D9D9"/>
</mask>
<g mask="url(#mask0_658_8419)">
<path d="M39.8 41.95L26.65 28.7999C25.65 29.6666 24.4833 30.3416 23.15 30.825C21.8167 31.3083 20.4 31.5499 18.9 31.5499C15.3 31.5499 12.25 30.2999 9.75 27.7999C7.25 25.2999 6 22.2833 6 18.75C6 15.2166 7.25 12.2 9.75 9.69995C12.25 7.19995 15.2833 5.94995 18.85 5.94995C22.3833 5.94995 25.3917 7.19995 27.875 9.69995C30.3583 12.2 31.6 15.2166 31.6 18.75C31.6 20.1833 31.3667 21.5666 30.9 22.9C30.4333 24.2333 29.7333 25.4833 28.8 26.65L42 39.75L39.8 41.95ZM18.85 28.5499C21.55 28.5499 23.85 27.5916 25.75 25.6749C27.65 23.7583 28.6 21.45 28.6 18.75C28.6 16.05 27.65 13.7416 25.75 11.825C23.85 9.90828 21.55 8.94995 18.85 8.94995C16.1167 8.94995 13.7917 9.90828 11.875 11.825C9.95833 13.7416 9 16.05 9 18.75C9 21.45 9.95833 23.7583 11.875 25.6749C13.7917 27.5916 16.1167 28.5499 18.85 28.5499Z" fill="#1C1B1F"/>
</g>
</svg>
