<svg width="48" height="48" viewBox="0 0 48 48" fill="none" xmlns="http://www.w3.org/2000/svg">
<mask id="mask0_699_8373" style="mask-type:alpha" maskUnits="userSpaceOnUse" x="0" y="0" width="49" height="49">
<rect x="0.350098" y="0.314087" width="48" height="48" fill="#D9D9D9"/>
</mask>
<g mask="url(#mask0_699_8373)">
<path d="M24.3501 31.8141C26.7168 31.8141 28.7251 30.9891 30.3751 29.3391C32.0251 27.6891 32.8501 25.6808 32.8501 23.3141C32.8501 20.9474 32.0251 18.9391 30.3751 17.2891C28.7251 15.6391 26.7168 14.8141 24.3501 14.8141C21.9834 14.8141 19.9751 15.6391 18.3251 17.2891C16.6751 18.9391 15.8501 20.9474 15.8501 23.3141C15.8501 25.6808 16.6751 27.6891 18.3251 29.3391C19.9751 30.9891 21.9834 31.8141 24.3501 31.8141ZM24.3501 28.9141C22.7834 28.9141 21.4584 28.3724 20.3751 27.2891C19.2918 26.2058 18.7501 24.8808 18.7501 23.3141C18.7501 21.7474 19.2918 20.4224 20.3751 19.3391C21.4584 18.2558 22.7834 17.7141 24.3501 17.7141C25.9168 17.7141 27.2418 18.2558 28.3251 19.3391C29.4084 20.4224 29.9501 21.7474 29.9501 23.3141C29.9501 24.8808 29.4084 26.2058 28.3251 27.2891C27.2418 28.3724 25.9168 28.9141 24.3501 28.9141ZM24.3501 38.3141C19.4834 38.3141 15.0834 36.9308 11.1501 34.1641C7.21676 31.3974 4.28343 27.7808 2.3501 23.3141C4.28343 18.8474 7.21676 15.2308 11.1501 12.4641C15.0834 9.69742 19.4834 8.31409 24.3501 8.31409C29.2168 8.31409 33.6168 9.69742 37.5501 12.4641C41.4834 15.2308 44.4168 18.8474 46.3501 23.3141C44.4168 27.7808 41.4834 31.3974 37.5501 34.1641C33.6168 36.9308 29.2168 38.3141 24.3501 38.3141ZM24.3501 35.3141C28.3834 35.3141 32.0918 34.2224 35.4751 32.0391C38.8584 29.8558 41.4334 26.9474 43.2001 23.3141C41.4334 19.6808 38.8584 16.7724 35.4751 14.5891C32.0918 12.4058 28.3834 11.3141 24.3501 11.3141C20.3168 11.3141 16.6084 12.4058 13.2251 14.5891C9.84176 16.7724 7.2501 19.6808 5.4501 23.3141C7.2501 26.9474 9.84176 29.8558 13.2251 32.0391C16.6084 34.2224 20.3168 35.3141 24.3501 35.3141Z" fill="#1C1B1F"/>
</g>
</svg>
